<?xml version="1.0" encoding="UTF-8"?>
<svg id="_レイヤー_1" data-name="レイヤー 1" xmlns="http://www.w3.org/2000/svg" viewBox="0 0 1920 1080">
  <defs>
    <style>
      .cls-1 {
        fill: #f24028;
      }
    </style>
  </defs>
  <path class="cls-1" d="M996.29,218.9v140.39h-75.68v-140.39h-189.16v446.87h453.99V218.9h-189.16ZM1034.25,397.25v-140.39h113.23v370.95h-378.07v-370.95h113.24v140.39h151.59Z"/>
  <path class="cls-1" d="M602.74,365.4v-146.5h-258.44v146.5h-101.3v300.37h453.98v-300.37h-94.24ZM382.26,402.6v-146.5h182.52v146.5h94.24v225.97h-378.07v-225.97h101.3Z"/>
  <path class="cls-1" d="M1317.26,519.27v146.5h258.44v-146.5h101.3V218.9h-453.98v300.37h94.24Z"/>
  <g>
    <path class="cls-1" d="M243,692.56h54.69c33,0,55.86,20.27,55.86,60.81v43.85c0,40.07-22.87,61.52-55.86,61.52h-54.69v-166.18ZM293.92,827.86c15.56,0,27.34-6.13,27.34-38.66v-32.29c0-17.91-4.71-33.24-27.34-33.24h-18.39v104.19h18.39Z"/>
    <path class="cls-1" d="M374.75,809.24v-32.29c0-32.29,18.39-52.33,50.44-52.33s49.97,18.62,49.97,51.15v25.93h-69.3v14.38c0,11.79,9.43,19.8,19.33,19.8s18.86-5.89,18.86-16.73v-2.83h31.12v.94c0,24.28-18.62,43.85-49.97,43.85s-50.44-20.04-50.44-51.86ZM444.05,780.01v-6.36c0-17.68-7.31-23.57-18.86-23.57s-19.33,6.13-19.33,20.27v9.66h38.19Z"/>
    <path class="cls-1" d="M496.38,680.77h31.11v99.24h10.37l26.64-53.74h35.36l-36.3,66,36.54,66.47h-35.36l-26.87-53.27h-10.37v53.27h-31.11v-177.97Z"/>
    <path class="cls-1" d="M615.4,808.53v-31.82c0-31.35,18.15-51.86,50.21-51.86s50.21,20.5,50.21,51.86v31.82c0,32.53-18.86,52.57-50.21,52.57s-50.21-20.04-50.21-52.57ZM665.61,833.52c10.37,0,19.09-6.36,19.09-20.51v-40.07c0-14.14-8.49-20.27-19.09-20.27s-19.09,6.13-19.09,20.27v40.07c0,14.14,8.25,20.51,19.09,20.51Z"/>
    <path class="cls-1" d="M740.56,692.56h50.92c32.77,0,55.16,14.62,55.16,45.26v2.36c0,17.91-7.78,29.46-20.98,35.12,14.14,6.13,22.63,17.44,22.63,35.83v2.12c0,30.64-22.39,45.49-55.16,45.49h-52.57v-166.18ZM793.12,762.8c10.61,0,21.21-3.53,21.21-18.86v-2.59c0-14.38-11.79-17.68-24.04-17.68h-17.21v39.13h20.04ZM791.94,827.86c12.49,0,24.04-3.06,24.04-19.33v-2.59c0-14.14-11.55-17.91-22.86-17.91h-20.04v39.84h18.86Z"/>
    <path class="cls-1" d="M867.36,808.53v-31.82c0-31.35,18.15-51.86,50.21-51.86s50.21,20.5,50.21,51.86v31.82c0,32.53-18.86,52.57-50.21,52.57s-50.21-20.04-50.21-52.57ZM917.57,833.52c10.37,0,19.09-6.36,19.09-20.51v-40.07c0-14.14-8.49-20.27-19.09-20.27s-19.09,6.13-19.09,20.27v40.07c0,14.14,8.25,20.51,19.09,20.51Z"/>
    <path class="cls-1" d="M990.17,680.77h31.11v99.24h10.37l26.64-53.74h35.36l-36.3,66,36.54,66.47h-35.36l-26.87-53.27h-10.37v53.27h-31.11v-177.97Z"/>
    <path class="cls-1" d="M1109.19,808.53v-31.82c0-31.35,18.15-51.86,50.2-51.86s50.21,20.5,50.21,51.86v31.82c0,32.53-18.86,52.57-50.21,52.57s-50.2-20.04-50.2-52.57ZM1159.4,833.52c10.37,0,19.1-6.36,19.1-20.51v-40.07c0-14.14-8.49-20.27-19.1-20.27s-19.09,6.13-19.09,20.27v40.07c0,14.14,8.25,20.51,19.09,20.51Z"/>
    <path class="cls-1" d="M1258.16,723.91h-34.65v-31.35h101.83v31.35h-34.65v134.83h-32.53v-134.83Z"/>
    <path class="cls-1" d="M1337.11,809.24v-32.29c0-32.29,18.39-52.33,50.44-52.33s49.97,18.62,49.97,51.15v25.93h-69.3v14.38c0,11.79,9.43,19.8,19.33,19.8s18.86-5.89,18.86-16.73v-2.83h31.12v.94c0,24.28-18.63,43.85-49.97,43.85s-50.44-20.04-50.44-51.86ZM1406.41,780.01v-6.36c0-17.68-7.3-23.57-18.86-23.57s-19.33,6.13-19.33,20.27v9.66h38.18Z"/>
    <path class="cls-1" d="M1454.96,809.24v-32.06c0-32.29,18.39-52.56,50.44-52.56s49.97,19.8,49.97,53.5v.95h-31.11v-.71c0-18.15-7.31-25.69-18.86-25.69s-19.33,6.13-19.33,22.86v31.12c0,17.44,6.36,26.64,19.33,26.64,10.84,0,18.86-7.78,18.86-24.99v-.94h31.11v.94c0,33-17.44,52.8-49.97,52.8s-50.44-20.04-50.44-51.86Z"/>
    <path class="cls-1" d="M1576.59,680.77h30.88v58.22s9.43-14.37,30.64-14.37,38.89,12.02,38.89,47.61v86.51h-31.35v-74.72c0-21.92-3.3-31.58-19.1-31.58-13.2,0-19.09,6.83-19.09,23.81v82.5h-30.88v-177.97Z"/>
  </g>
</svg>